<svg width="429" height="117" viewBox="0 0 429 117" fill="none" xmlns="http://www.w3.org/2000/svg">
<g clip-path="url(#clip0_100_183)">
<path d="M92.25 82.03C94.69 82.66 97.24 82.95 99.61 83.87C111.24 88.4 119.27 99.63 119.42 112.24C119.42 112.365 119.37 112.484 119.282 112.572C119.194 112.66 119.075 112.71 118.95 112.71C106.197 112.637 93.3133 112.63 80.3 112.69C72.84 112.73 67.43 112.197 64.07 111.09C55.3033 108.217 48.9533 102.677 45.02 94.47C43.69 91.7 43.1 88.79 42.46 85.81C42.4086 85.564 42.2895 85.3372 42.1162 85.1552C41.9429 84.9732 41.7223 84.8431 41.479 84.7797C41.2358 84.7163 40.9798 84.7221 40.7397 84.7963C40.4996 84.8706 40.2849 85.0104 40.12 85.2C29.6 97.35 15.1 100.61 0.63998 93.37C0.560393 93.3302 0.489828 93.2745 0.432656 93.2063C0.375485 93.1381 0.332924 93.0589 0.307612 92.9736C0.2823 92.8883 0.274774 92.7987 0.285502 92.7103C0.296231 92.622 0.324983 92.5368 0.36998 92.46C6.51665 82.0267 12.6733 71.4067 18.84 60.6C23.2266 52.92 26.5533 48.0933 28.82 46.12C35.5266 40.26 43.28 37.55 52.08 37.99C55.65 38.16 58.8 39.18 62.11 40.36C62.3474 40.4436 62.6039 40.4564 62.8485 40.397C63.0931 40.3375 63.3151 40.2084 63.4877 40.0252C63.6603 39.842 63.776 39.6127 63.8208 39.365C63.8656 39.1174 63.8375 38.862 63.74 38.63C57.79 24.54 63.09 8.61002 76.07 0.590016C76.1611 0.533516 76.2629 0.496161 76.3691 0.480171C76.4754 0.464181 76.584 0.469882 76.6885 0.496937C76.793 0.523992 76.8912 0.571847 76.9774 0.637656C77.0635 0.703466 77.1358 0.785886 77.19 0.880016C83.69 12.1267 90.4566 23.7 97.49 35.6C100.477 40.6667 102.363 44.7567 103.15 47.87C106.16 59.83 101.52 72.3 91.79 79.77C91.5982 79.9158 91.4513 80.1127 91.3664 80.3381C91.2815 80.5636 91.262 80.8084 91.3101 81.0445C91.3581 81.2806 91.4718 81.4983 91.6381 81.6726C91.8043 81.847 92.0164 81.9708 92.25 82.03ZM44.09 78.8C43.902 79.1236 43.8026 79.491 43.8017 79.8652C43.8009 80.2395 43.8987 80.6073 44.0852 80.9318C44.2718 81.2562 44.5405 81.5257 44.8643 81.7133C45.1882 81.9008 45.5557 81.9997 45.93 82H85.03C85.4042 81.9997 85.7718 81.9008 86.0956 81.7133C86.4195 81.5257 86.6882 81.2562 86.8747 80.9318C87.0613 80.6073 87.1591 80.2395 87.1582 79.8652C87.1574 79.491 87.058 79.1236 86.87 78.8L67.32 45.3C67.1324 44.9784 66.8638 44.7115 66.541 44.5261C66.2181 44.3406 65.8523 44.243 65.48 44.243C65.1077 44.243 64.7418 44.3406 64.419 44.5261C64.0961 44.7115 63.8275 44.9784 63.64 45.3L44.09 78.8Z" fill="#152E86"/>
<path d="M191.77 90.09L181.68 114.46C181.56 114.747 181.343 114.89 181.03 114.89L160.74 114.75C160.691 114.749 160.642 114.736 160.599 114.712C160.556 114.688 160.519 114.654 160.492 114.612C160.466 114.571 160.45 114.523 160.446 114.474C160.442 114.425 160.45 114.375 160.47 114.33C176.343 78.47 192.213 42.6433 208.08 6.84997C208.747 5.35664 209.457 3.85997 210.21 2.35997C210.363 2.0533 210.593 1.8333 210.9 1.69997C211.613 1.3933 212.387 1.2433 213.22 1.24997C221.75 1.36997 226.61 6.11997 229.89 13.81C244.497 48.0633 258.83 81.5933 272.89 114.4C273.003 114.66 272.92 114.79 272.64 114.79L251.74 114.78C251.36 114.78 251.1 114.603 250.96 114.25L241.69 90.4C241.608 90.191 241.465 90.0116 241.279 89.885C241.094 89.7584 240.874 89.6904 240.65 89.69L192.42 89.66C192.28 89.6604 192.144 89.7014 192.029 89.7779C191.913 89.8544 191.823 89.9629 191.77 90.09ZM234.77 73.09C229 58.14 223.25 43.19 217.75 28.31C217.45 27.4966 217.147 27.4933 216.84 28.3C211.207 43.28 205.173 58.1933 198.74 73.04C198.702 73.1266 198.686 73.2214 198.693 73.3158C198.701 73.4102 198.732 73.5012 198.784 73.5806C198.835 73.66 198.906 73.7253 198.989 73.7706C199.072 73.8159 199.165 73.8397 199.26 73.84L234.27 73.82C234.357 73.8191 234.442 73.7973 234.519 73.7564C234.595 73.7155 234.661 73.6568 234.71 73.5851C234.759 73.5135 234.79 73.4311 234.801 73.3449C234.811 73.2587 234.8 73.1712 234.77 73.09Z" fill="#152E86"/>
<path d="M300.05 1.60999H281.85C281.574 1.60999 281.35 1.83384 281.35 2.10999V114.39C281.35 114.666 281.574 114.89 281.85 114.89H300.05C300.326 114.89 300.55 114.666 300.55 114.39V2.10999C300.55 1.83384 300.326 1.60999 300.05 1.60999Z" fill="#152E86"/>
<path d="M335.62 1.60999H317.88C317.488 1.60999 317.17 1.92786 317.17 2.31999V114.18C317.17 114.572 317.488 114.89 317.88 114.89H335.62C336.012 114.89 336.33 114.572 336.33 114.18V2.31999C336.33 1.92786 336.012 1.60999 335.62 1.60999Z" fill="#152E86"/>
<path d="M429 75.81V81.77C426.7 103.91 410.67 116.21 389.15 117H387.18C364.7 116.14 348.1 100.97 348.48 77.97C348.693 65.03 353.857 55.0533 363.97 48.04C369.89 43.9333 376.367 41.5433 383.4 40.87C406.63 38.66 426.48 51.07 429 75.81ZM409.528 75.5544C409.511 73.0527 409.001 70.5791 408.027 68.2745C407.054 65.97 405.636 63.8798 403.855 62.1232C402.073 60.3667 399.964 58.9781 397.646 58.0369C395.328 57.0957 392.847 56.6203 390.346 56.6378L386.706 56.6632C384.204 56.6806 381.73 57.1906 379.426 58.1641C377.121 59.1376 375.031 60.5554 373.275 62.3367C371.518 64.118 370.13 66.2278 369.188 68.5457C368.247 70.8636 367.772 73.3441 367.789 75.8458L367.832 81.9456C367.849 84.4472 368.359 86.9209 369.333 89.2254C370.306 91.5299 371.724 93.6201 373.505 95.3767C375.287 97.1333 377.396 98.5218 379.714 99.463C382.032 100.404 384.513 100.88 387.014 100.862L390.654 100.837C393.156 100.819 395.63 100.309 397.934 99.3358C400.239 98.3623 402.329 96.9445 404.085 95.1632C405.842 93.382 407.23 91.2721 408.172 88.9543C409.113 86.6364 409.588 84.1558 409.571 81.6542L409.528 75.5544Z" fill="#152E86"/>
</g>
<defs>
<clipPath id="clip0_100_183">
<rect width="429" height="117" fill="white"/>
</clipPath>
</defs>
</svg>
